<svg xmlns="http://www.w3.org/2000/svg" xmlns:xlink="http://www.w3.org/1999/xlink" width="40" zoomAndPan="magnify" viewBox="0 0 30 30.000001" height="40" preserveAspectRatio="xMidYMid meet" version="1.0"><defs><g/><clipPath id="65793132bc"><path d="M 0.484375 0 L 29.515625 0 L 29.515625 29.03125 L 0.484375 29.03125 Z M 0.484375 0 " clip-rule="nonzero"/></clipPath><clipPath id="c440085720"><path d="M 8.46875 0 L 21.53125 0 C 25.941406 0 29.515625 3.574219 29.515625 7.984375 L 29.515625 21.046875 C 29.515625 25.457031 25.941406 29.03125 21.53125 29.03125 L 8.46875 29.03125 C 4.058594 29.03125 0.484375 25.457031 0.484375 21.046875 L 0.484375 7.984375 C 0.484375 3.574219 4.058594 0 8.46875 0 Z M 8.46875 0 " clip-rule="nonzero"/></clipPath><clipPath id="c61933a023"><path d="M 0.484375 0 L 29.515625 0 L 29.515625 29.03125 L 0.484375 29.03125 Z M 0.484375 0 " clip-rule="nonzero"/></clipPath><clipPath id="1f6674247e"><path d="M 8.46875 0 L 21.53125 0 C 25.941406 0 29.515625 3.574219 29.515625 7.984375 L 29.515625 21.046875 C 29.515625 25.457031 25.941406 29.03125 21.53125 29.03125 L 8.46875 29.03125 C 4.058594 29.03125 0.484375 25.457031 0.484375 21.046875 L 0.484375 7.984375 C 0.484375 3.574219 4.058594 0 8.46875 0 Z M 8.46875 0 " clip-rule="nonzero"/></clipPath><clipPath id="ec339da427"><rect x="0" width="30" y="0" height="30"/></clipPath><clipPath id="393c8a3419"><path d="M 4.035156 1.691406 L 14.96875 1.691406 L 14.96875 14.695312 L 4.035156 14.695312 Z M 4.035156 1.691406 " clip-rule="nonzero"/></clipPath><clipPath id="e45cae3af5"><path d="M 0.0351562 0.691406 L 10.96875 0.691406 L 10.96875 13.695312 L 0.0351562 13.695312 Z M 0.0351562 0.691406 " clip-rule="nonzero"/></clipPath><clipPath id="eb7ff1c695"><rect x="0" width="11" y="0" height="14"/></clipPath></defs><g clip-path="url(#65793132bc)"><g clip-path="url(#c440085720)"><g transform="matrix(1, 0, 0, 1, 0, 0.000000000000005692)"><g clip-path="url(#ec339da427)"><g clip-path="url(#c61933a023)"><g clip-path="url(#1f6674247e)"><path fill="#061bb0" d="M 0.484375 0 L 29.515625 0 L 29.515625 29.03125 L 0.484375 29.03125 Z M 0.484375 0 " fill-opacity="1" fill-rule="nonzero"/></g></g></g></g></g></g><g clip-path="url(#393c8a3419)"><g transform="matrix(1, 0, 0, 1, 4, 1)"><g clip-path="url(#eb7ff1c695)"><g clip-path="url(#e45cae3af5)"><path fill="#061bb0" d="M 0.0351562 0.691406 L 10.96875 0.691406 L 10.96875 13.675781 L 0.0351562 13.675781 Z M 0.0351562 0.691406 " fill-opacity="1" fill-rule="nonzero"/></g></g></g></g><g fill="#ff6503" fill-opacity="1"><g transform="translate(4.039012, 21.774195)"><g><path d="M 1.109375 -1.46875 C 1.515625 -1.476562 1.820312 -1.523438 2.03125 -1.609375 C 2.238281 -1.691406 2.398438 -1.863281 2.515625 -2.125 C 2.628906 -2.394531 2.6875 -2.820312 2.6875 -3.40625 L 2.6875 -11.921875 C 2.6875 -12.753906 2.71875 -13.421875 2.78125 -13.921875 L 1.109375 -13.859375 L 1.109375 -15.578125 L 7.5 -15.578125 L 7.5 -14.109375 C 7.09375 -14.085938 6.785156 -14.035156 6.578125 -13.953125 C 6.378906 -13.878906 6.21875 -13.707031 6.09375 -13.4375 C 5.976562 -13.164062 5.921875 -12.742188 5.921875 -12.171875 L 5.921875 -3.65625 C 5.921875 -2.820312 5.890625 -2.148438 5.828125 -1.640625 C 6.304688 -1.691406 6.863281 -1.71875 7.5 -1.71875 L 7.5 0 L 1.109375 0 Z M 1.109375 -1.46875 "/></g></g></g><g fill="#ff6503" fill-opacity="1"><g transform="translate(12.649978, 21.774195)"><g><path d="M 6.828125 0.359375 C 6.222656 0.359375 5.570312 0.257812 4.875 0.0625 C 4.1875 -0.125 3.554688 -0.390625 2.984375 -0.734375 L 2.953125 -0.734375 L 3.03125 0.203125 L 1.3125 0.203125 L 1.3125 -5 L 2.78125 -5 C 2.976562 -3.789062 3.445312 -2.863281 4.1875 -2.21875 C 4.925781 -1.570312 5.828125 -1.25 6.890625 -1.25 C 7.660156 -1.25 8.296875 -1.453125 8.796875 -1.859375 C 9.304688 -2.265625 9.5625 -2.757812 9.5625 -3.34375 C 9.5625 -3.8125 9.394531 -4.21875 9.0625 -4.5625 C 8.726562 -4.90625 8.359375 -5.171875 7.953125 -5.359375 C 7.546875 -5.554688 6.894531 -5.832031 6 -6.1875 C 4.375 -6.84375 3.125 -7.582031 2.25 -8.40625 C 1.382812 -9.238281 0.953125 -10.332031 0.953125 -11.6875 C 0.953125 -12.363281 1.125 -13.023438 1.46875 -13.671875 C 1.8125 -14.316406 2.367188 -14.851562 3.140625 -15.28125 C 3.921875 -15.71875 4.925781 -15.9375 6.15625 -15.9375 C 6.800781 -15.9375 7.472656 -15.84375 8.171875 -15.65625 C 8.867188 -15.46875 9.445312 -15.203125 9.90625 -14.859375 L 9.921875 -14.859375 L 9.828125 -15.78125 L 11.5625 -15.78125 L 11.5625 -10.59375 L 10.09375 -10.59375 C 9.90625 -11.8125 9.476562 -12.738281 8.8125 -13.375 C 8.15625 -14.007812 7.316406 -14.328125 6.296875 -14.328125 C 5.628906 -14.328125 5.050781 -14.144531 4.5625 -13.78125 C 4.082031 -13.414062 3.84375 -12.960938 3.84375 -12.421875 C 3.84375 -11.765625 4.117188 -11.210938 4.671875 -10.765625 C 5.222656 -10.316406 6.148438 -9.828125 7.453125 -9.296875 C 8.953125 -8.703125 10.171875 -8.015625 11.109375 -7.234375 C 12.054688 -6.460938 12.53125 -5.429688 12.53125 -4.140625 C 12.53125 -3.265625 12.289062 -2.484375 11.8125 -1.796875 C 11.34375 -1.117188 10.675781 -0.585938 9.8125 -0.203125 C 8.945312 0.171875 7.953125 0.359375 6.828125 0.359375 Z M 6.828125 0.359375 "/></g></g></g></svg>